<svg width="20" height="20" viewBox="0 0 20 20" fill="none" xmlns="http://www.w3.org/2000/svg">
<path d="M0.23605 9.76603C0.353541 6.65113 1.93212 3.77821 4.81789 1.87978C4.82641 1.88297 4.90117 1.85575 4.86702 1.92038C4.63843 2.13233 0.52868 6.9871 4.31158 10.8191C4.31158 10.8191 6.29915 12.7299 7.84039 10.9168C7.84039 10.9168 9.36126 8.94798 7.82115 5.96336C7.82115 5.96336 7.43133 4.98881 6.02682 4.38431L7.15794 3.1363C7.15794 3.1363 8.11378 3.54643 8.85395 4.65877C8.85395 4.65877 8.89342 3.48765 7.99629 2.23971L9.75001 0.250004L11.4861 2.221C11.4861 2.221 10.6877 3.35205 10.629 4.67747C10.629 4.67747 11.1742 3.78034 12.3448 3.13637L13.4556 4.38438C13.4556 4.38438 12.3875 4.73632 11.672 5.95064C11.0567 7.07577 10.5831 9.48205 11.6996 10.9581C11.6996 10.9581 12.9492 12.7299 15.1473 10.8535C15.1473 10.8535 19.1888 7.23227 14.7329 1.9968C14.7329 1.9968 14.4894 1.78159 14.7627 1.89855C16.7322 3.33241 19.0904 5.22333 19.3339 9.94236C19.2378 15.6649 15.4057 19.75 9.80986 19.75C4.33088 19.75 0.0716278 15.1778 0.23605 9.76603Z" fill="#757575"/>
</svg>
