<svg width="24" height="24" viewBox="0 0 24 24" fill="none" xmlns="http://www.w3.org/2000/svg">
<g id="Icons">
<g id="Group">
<path id="Vector" d="M2.23654 11.766C2.35403 8.65113 3.93261 5.77821 6.81838 3.87977C6.8269 3.88297 6.90166 3.85574 6.86751 3.92038C6.63891 4.13233 2.52917 8.9871 6.31207 12.8191C6.31207 12.8191 8.29964 14.7299 9.84088 12.9168C9.84088 12.9168 11.3617 10.948 9.82164 7.96336C9.82164 7.96336 9.43182 6.98881 8.02731 6.38431L9.15843 5.1363C9.15843 5.1363 10.1143 5.54642 10.8544 6.65877C10.8544 6.65877 10.8939 5.48764 9.99678 4.2397L11.7505 2.25L13.4866 4.221C13.4866 4.221 12.6882 5.35205 12.6295 6.67747C12.6295 6.67747 13.1747 5.78034 14.3453 5.13637L15.456 6.38437C15.456 6.38437 14.388 6.73632 13.6724 7.95064C13.0572 9.07577 12.5836 11.482 13.7001 12.958C13.7001 12.958 14.9497 14.7299 17.1478 12.8535C17.1478 12.8535 21.1892 9.23227 16.7333 3.9968C16.7333 3.9968 16.4898 3.78159 16.7632 3.89854C18.7327 5.33241 21.0909 7.22332 21.3344 11.9424C21.2383 17.6649 17.4061 21.75 11.8103 21.75C6.33137 21.75 2.07212 17.1778 2.23654 11.766Z" fill="#757575"/>
</g>
</g>
</svg>
