<svg width="22" height="22" viewBox="0 0 22 22" fill="none" xmlns="http://www.w3.org/2000/svg">
<path d="M11 0.37405C16.8655 0.374052 21.6259 5.13448 21.6259 11C21.6259 16.8655 16.8655 21.626 11 21.626C5.13445 21.626 0.374023 16.8655 0.374023 11C0.374019 5.13448 5.13445 0.37405 11 0.37405Z" stroke="#757575" stroke-width="0.732824"/>
<path d="M12.2242 1.70687V2.79809C13.5973 3.00115 14.861 3.53881 15.9284 4.329L16.699 3.55954C15.425 2.58187 13.8937 1.9247 12.2242 1.70687ZM9.77039 1.7103C8.10185 1.92939 6.57206 2.58793 5.29902 3.56526L6.06505 4.33473H6.06848C7.13536 3.54402 8.39775 3.00233 9.77039 2.79809V1.7103ZM10.3131 3.93397V7.60725C9.86814 7.69708 9.4522 7.87045 9.0868 8.11336L6.48871 5.51641L5.51657 6.48855L8.11695 9.08893C7.87471 9.45386 7.69823 9.86876 7.60856 10.313H3.93413V11.687H7.60856C7.69822 12.131 7.87486 12.5428 8.11695 12.9076L5.51657 15.5092L6.48871 16.4813L9.0868 13.8832C9.4522 14.1261 9.86814 14.3018 10.3131 14.3916V18.066H11.6872V14.3916C12.1326 14.3017 12.5456 14.123 12.9112 13.8798L15.5116 16.4813L16.4837 15.5092L13.8834 12.9076C14.1254 12.5429 14.3033 12.1309 14.3929 11.687H18.0662V10.313H14.3929C14.3032 9.86885 14.1255 9.4538 13.8834 9.08893L16.4837 6.48855L15.5116 5.51641L12.9112 8.11679C12.5456 7.87352 12.1326 7.69717 11.6872 7.60725V3.93397H10.3131ZM18.4349 5.29542L17.6654 6.06488C18.4577 7.13279 18.9979 8.39925 19.2021 9.77366H20.2933C20.0742 8.10319 19.4145 6.56957 18.4349 5.29542ZM3.56199 5.30114C2.58436 6.57407 1.92589 8.10509 1.70703 9.77366H2.7994C3.00336 8.40148 3.54209 7.13858 4.3326 6.07175L3.56199 5.30114ZM1.70703 12.2263C1.92526 13.8947 2.58262 15.4256 3.5597 16.6989L4.32917 15.9282C3.53954 14.8616 3.0028 13.5983 2.7994 12.2263H1.70703ZM19.2021 12.2263C18.9977 13.5998 18.4573 14.8637 17.6654 15.9317L18.4349 16.7011C19.4135 15.4274 20.0739 13.8958 20.2933 12.2263H19.2021ZM6.06505 17.6653L5.29558 18.4347C6.56897 19.4138 8.10109 20.0737 9.77039 20.2931V19.2008C8.39715 18.9962 7.13217 18.4569 6.06505 17.6653ZM15.9284 17.6676C14.8606 18.4585 13.5979 19.0009 12.2242 19.2042V20.2931C13.8939 20.0751 15.425 19.4158 16.699 18.4382L15.9318 17.6676H15.9284Z" fill="#757575"/>
</svg>
